<?xml version="1.0" encoding="UTF-8"?>
<svg id="Layer_1" data-name="Layer 1" xmlns="http://www.w3.org/2000/svg" viewBox="0 0 100 100">
  <defs>
    <style>
      .cls-1 {
        
      }
    </style>
  </defs>
  <path class="cls-1" d="M21.79,98.77h55.45v-20.43H21.79v20.43ZM62.79,82.35h10.74v2.98h-6.75v1.71h5.78v2.85h-5.78v1.9h6.88v2.98h-10.87v-12.42ZM56.19,90.63c-.37-.15-.97-.31-1.8-.48-1.01-.22-1.85-.44-2.51-.68-.66-.23-1.24-.62-1.73-1.16s-.74-1.28-.74-2.2c0-1.36.53-2.36,1.58-3,1.05-.64,2.39-.97,4-.97s2.89.32,3.92.97c1.02.64,1.55,1.6,1.57,2.86v.22h-3.74v-.07c0-.36-.13-.66-.4-.9-.27-.24-.67-.36-1.21-.36s-.94.08-1.22.23c-.28.15-.42.35-.42.58,0,.32.19.57.58.72.39.15,1.01.32,1.86.49,1,.2,1.82.42,2.47.64s1.21.59,1.69,1.09c.48.51.73,1.19.74,2.06,0,1.47-.5,2.56-1.49,3.27h-.01c-.99.7-2.32,1.06-3.98,1.06-1.94,0-3.45-.32-4.52-.97s-1.61-1.8-1.61-3.45h3.77c0,.63.16,1.05.49,1.25.32.21.83.32,1.52.32.51,0,.92-.05,1.25-.16s.5-.33.5-.67c0-.3-.18-.53-.55-.68ZM43.73,82.35l4.53,12.42h-4.22l-.52-1.75h-4.35l-.52,1.75h-4.08l4.53-12.42h4.64ZM25.37,82.35h10.04v2.98h-6.05v2.13h5.2v2.85h-5.2v4.46h-3.99v-12.42Z"/>
  <polygon class="cls-1" points="41.38 85.81 41.31 85.81 39.99 90.24 42.68 90.24 41.38 85.81"/>
  <path class="cls-1" d="M61.45,58.33V1.23h-7.15c-4.41,2.92-9.57,5.5-15.48,7.74-5.91,2.24-11.25,3.51-16.01,3.79v12.38h17.4v33.19h-17.4v16.44h55.4v-16.44h-16.76Z"/>
</svg>