<?xml version="1.0" encoding="UTF-8"?>
<svg id="Camada_1" data-name="Camada 1" xmlns="http://www.w3.org/2000/svg" viewBox="0 0 30 27">
  <defs>
    <style>
      .cls-1 {
        fill: #e43a12;
      }
    </style>
  </defs>
  <path class="cls-1" d="M30,3.36l-3.52-.06-1.79-2.89-.88,3.35-3.81.65,3.46,1.46.31.13-.73,3.17,2.15-1.91,3.5,1.91-1.41-3.85,2.73-1.97Z"/>
  <path class="cls-1" d="M3.2,1.04l2.41,8.3L0,15.7l8.68-.33,4.15,8.64,1.37-9.13v-.83l8.1-.54-6.1-3.78,1.99-9.72-8.3,6.15L3.2,1.04Z"/>
  <path class="cls-1" d="M7.07,25.62l-1.27-2.14,1.08-2.14-2.35.71-1.79-2.05.4,2.62.04.23-2.18.74,1.94.6.15,2.81,1.79-2.27,2.19.89Z"/>
  <path class="cls-1" d="M20.79,18.32l.6,2.05-1.39,1.57,2.15-.08,1.03,2.14.25-2.31v-.21l2-.14-1.51-.92.49-2.41-2.05,1.53-1.56-1.21Z"/>
</svg>